<svg width="683" height="683" viewBox="0 0 683 683" fill="none" xmlns="http://www.w3.org/2000/svg">
<path d="M29.6 2.40003C10.8 9.20003 -1.20001 27.7334 0.266653 47.3334C1.73332 64.2667 -5.33335 56.6667 143.067 204.933L279.333 341.333L142.533 478.267C-10.6667 631.6 0.666653 618.8 0.666653 639.333C0.666653 647.333 1.46665 651.6 3.59999 656.267C7.59999 665.067 16.4 674 25.2 678.267C31.4667 681.467 34.4 682 43.3333 682C63.8667 682 51.0667 693.2 204.4 540.133L341.333 403.333L478.4 540.133C631.733 693.333 618.933 682.133 639.333 681.867C652.533 681.867 662.533 677.467 670.533 668.533C678.933 658.933 681.733 651.733 681.867 639.333C682.133 618.933 693.333 631.733 540.133 478.4L403.333 341.333L540.133 204.267C693.2 51.0667 682 63.8667 682 43.3334C682 34.4 681.467 31.4667 678.267 25.2C674 16.4 665.067 7.60003 656.267 3.60003C651.6 1.4667 647.333 0.666696 639.333 0.666696C618.8 0.666696 631.6 -10.6666 478.267 142.533L341.333 279.333L204.933 143.067C90.5333 28.5334 67.6 6.2667 62 3.8667C52.6667 -0.266637 38.8 -0.799971 29.6 2.40003Z" fill="#5A5A72"/>
</svg>
