<svg width="511" height="362" viewBox="0 0 511 362" fill="none" xmlns="http://www.w3.org/2000/svg">
<path d="M20.5333 1.86671C13.0667 4.53338 7.73333 8.93338 3.73333 15.7334C0.533333 21.0667 0 23.4667 0 32.1334C0 41.0667 0.533333 42.9334 4 48.8C6.53333 52.8 10.5333 56.8 14.5333 59.3334L21.0667 63.3334H255.333H489.6L496.133 59.3334C500.133 56.8 504.133 52.8 506.667 48.8C510.267 42.9334 510.667 41.0667 510.667 32C510.667 22.9334 510.267 21.0667 506.667 15.2C504.133 11.2 500.133 7.20004 496.133 4.66671L489.6 0.666711L257.467 0.400044C70 0.133378 24.4 0.400044 20.5333 1.86671Z" fill="#5A5A72"/>
<path d="M20.5333 151.2C13.0667 153.867 7.73333 158.267 3.73333 165.067C0.533333 170.4 0 172.8 0 181.467C0 190.4 0.533333 192.267 4 198.133C6.53333 202.133 10.5333 206.133 14.5333 208.667L21.0667 212.667H255.333H489.6L496.133 208.667C500.133 206.133 504.133 202.133 506.667 198.133C510.267 192.267 510.667 190.4 510.667 181.333C510.667 172.267 510.267 170.4 506.667 164.533C504.133 160.533 500.133 156.533 496.133 154L489.6 150L257.467 149.733C70 149.467 24.4 149.733 20.5333 151.2Z" fill="#5A5A72"/>
<path d="M20.5333 300.533C13.0667 303.2 7.73333 307.6 3.73333 314.4C0.533333 319.733 0 322.133 0 330.8C0 339.733 0.533333 341.6 4 347.467C6.53333 351.467 10.5333 355.467 14.5333 358L21.0667 362H255.333H489.6L496.133 358C500.133 355.467 504.133 351.467 506.667 347.467C510.267 341.6 510.667 339.733 510.667 330.667C510.667 321.6 510.267 319.733 506.667 313.867C504.133 309.867 500.133 305.867 496.133 303.333L489.6 299.333L257.467 299.067C70 298.8 24.4 299.067 20.5333 300.533Z" fill="#5A5A72"/>
</svg>
